<svg width="400" height="300" viewBox="0 0 400 300" fill="none" xmlns="http://www.w3.org/2000/svg">
  <rect width="400" height="300" rx="20" fill="url(#gradient2)"/>
  
  <!-- Trend Chart -->
  <g>
    <!-- Grid Lines -->
    <g stroke="#3B82F6" stroke-width="0.5" opacity="0.2">
      <line x1="50" y1="50" x2="50" y2="250"/>
      <line x1="100" y1="50" x2="100" y2="250"/>
      <line x1="150" y1="50" x2="150" y2="250"/>
      <line x1="200" y1="50" x2="200" y2="250"/>
      <line x1="250" y1="50" x2="250" y2="250"/>
      <line x1="300" y1="50" x2="300" y2="250"/>
      <line x1="350" y1="50" x2="350" y2="250"/>
      
      <line x1="50" y1="250" x2="350" y2="250"/>
      <line x1="50" y1="200" x2="350" y2="200"/>
      <line x1="50" y1="150" x2="350" y2="150"/>
      <line x1="50" y1="100" x2="350" y2="100"/>
      <line x1="50" y1="50" x2="350" y2="50"/>
    </g>
    
    <!-- Trend Line -->
    <path d="M 50 220 Q 100 200, 150 180 T 250 120 Q 300 80, 350 60" 
          stroke="url(#lineGradient)" 
          stroke-width="4" 
          fill="none"
          stroke-linecap="round">
      <animate attributeName="stroke-dasharray" values="0 400;400 0" dur="2s" repeatCount="1"/>
    </path>
    
    <!-- Area under curve -->
    <path d="M 50 250 L 50 220 Q 100 200, 150 180 T 250 120 Q 300 80, 350 60 L 350 250 Z" 
          fill="url(#areaGradient)" 
          opacity="0.3"/>
    
    <!-- Data Points -->
    <g fill="#3B82F6">
      <circle cx="50" cy="220" r="6">
        <animate attributeName="r" values="6;8;6" dur="2s" repeatCount="indefinite" begin="0s"/>
      </circle>
      <circle cx="150" cy="180" r="6">
        <animate attributeName="r" values="6;8;6" dur="2s" repeatCount="indefinite" begin="0.5s"/>
      </circle>
      <circle cx="250" cy="120" r="6">
        <animate attributeName="r" values="6;8;6" dur="2s" repeatCount="indefinite" begin="1s"/>
      </circle>
      <circle cx="350" cy="60" r="6">
        <animate attributeName="r" values="6;8;6" dur="2s" repeatCount="indefinite" begin="1.5s"/>
      </circle>
    </g>
    
    <!-- Arrow -->
    <g transform="translate(320, 40)">
      <path d="M 0 0 L 20 -10 L 20 -5 L 30 -5 L 30 5 L 20 5 L 20 10 Z" fill="#10B981">
        <animateTransform attributeName="transform" type="translate" values="0,0; 5,-5; 0,0" dur="1s" repeatCount="indefinite"/>
      </path>
    </g>
  </g>
  
  <!-- Floating Icons -->
  <g opacity="0.6">
    <text x="70" y="40" font-size="20" fill="#10B981">📈</text>
    <text x="320" y="280" font-size="20" fill="#3B82F6">📊</text>
    <text x="200" y="30" font-size="16" fill="#F59E0B">⚡</text>
  </g>
  
  <defs>
    <linearGradient id="gradient2" x1="0%" y1="0%" x2="100%" y2="100%">
      <stop offset="0%" style="stop-color:#3B82F6;stop-opacity:0.1" />
      <stop offset="100%" style="stop-color:#06B6D4;stop-opacity:0.1" />
    </linearGradient>
    
    <linearGradient id="lineGradient" x1="0%" y1="0%" x2="100%" y2="0%">
      <stop offset="0%" style="stop-color:#3B82F6" />
      <stop offset="100%" style="stop-color:#10B981" />
    </linearGradient>
    
    <linearGradient id="areaGradient" x1="0%" y1="0%" x2="0%" y2="100%">
      <stop offset="0%" style="stop-color:#3B82F6;stop-opacity:0.3" />
      <stop offset="100%" style="stop-color:#3B82F6;stop-opacity:0" />
    </linearGradient>
  </defs>
</svg>