<svg width="200" height="200" viewBox="0 0 200 200" xmlns="http://www.w3.org/2000/svg">
  <defs>
    <linearGradient id="bg1" x1="0%" y1="0%" x2="100%" y2="100%">
      <stop offset="0%" style="stop-color:#667eea"/>
      <stop offset="100%" style="stop-color:#764ba2"/>
    </linearGradient>
    <linearGradient id="heart" x1="0%" y1="0%" x2="100%" y2="100%">
      <stop offset="0%" style="stop-color:#ff6b6b"/>
      <stop offset="100%" style="stop-color:#ee5a24"/>
    </linearGradient>
    <linearGradient id="music" x1="0%" y1="0%" x2="100%" y2="100%">
      <stop offset="0%" style="stop-color:#4ecdc4"/>
      <stop offset="100%" style="stop-color:#44a08d"/>
    </linearGradient>
    <linearGradient id="tech" x1="0%" y1="0%" x2="100%" y2="100%">
      <stop offset="0%" style="stop-color:#a8edea"/>
      <stop offset="100%" style="stop-color:#fed6e3"/>
    </linearGradient>
    <filter id="glow">
      <feGaussianBlur stdDeviation="3" result="coloredBlur"/>
      <feMerge>
        <feMergeNode in="coloredBlur"/>
        <feMergeNode in="SourceGraphic"/>
      </feMerge>
    </filter>
  </defs>
  
  <!-- Background circle -->
  <circle cx="100" cy="100" r="90" fill="url(#bg1)" filter="url(#glow)"/>
  
  <!-- Central selection interface -->
  <circle cx="100" cy="100" r="60" fill="white" opacity="0.1" stroke="white" stroke-width="2"/>
  
  <!-- Preference tags around the circle -->
  <!-- Music tag -->
  <g transform="translate(100, 50)">
    <rect x="-25" y="-8" width="50" height="16" rx="8" fill="url(#music)"/>
    <text x="0" y="3" text-anchor="middle" fill="white" font-family="Arial" font-size="10" font-weight="bold">音楽</text>
  </g>
  
  <!-- Gaming tag -->
  <g transform="translate(150, 100)">
    <rect x="-25" y="-8" width="50" height="16" rx="8" fill="url(#tech)"/>
    <text x="0" y="3" text-anchor="middle" fill="white" font-family="Arial" font-size="10" font-weight="bold">ゲーム</text>
  </g>
  
  <!-- Cooking tag -->
  <g transform="translate(100, 150)">
    <rect x="-25" y="-8" width="50" height="16" rx="8" fill="url(#heart)"/>
    <text x="0" y="3" text-anchor="middle" fill="white" font-family="Arial" font-size="10" font-weight="bold">料理</text>
  </g>
  
  <!-- Tech tag -->
  <g transform="translate(50, 100)">
    <rect x="-25" y="-8" width="50" height="16" rx="8" fill="url(#music)"/>
    <text x="0" y="3" text-anchor="middle" fill="white" font-family="Arial" font-size="10" font-weight="bold">テック</text>
  </g>
  
  <!-- Central hand/click icon -->
  <g transform="translate(100, 100)" fill="white">
    <circle r="8" fill="rgba(255,255,255,0.2)"/>
    <!-- Hand cursor icon -->
    <path d="M-6,-6 L-6,0 L-4,0 L-4,-4 L-2,-4 L-2,-2 L0,-2 L0,-4 L2,-4 L2,2 L4,2 L4,4 L-2,4 L-4,2 L-6,2 Z" fill="white"/>
  </g>
  
  <!-- Animated selection indicators -->
  <g stroke="white" stroke-width="2" fill="none" opacity="0.8">
    <circle cx="100" cy="50" r="12">
      <animate attributeName="r" values="12;16;12" dur="2s" repeatCount="indefinite"/>
      <animate attributeName="opacity" values="0.8;0.3;0.8" dur="2s" repeatCount="indefinite"/>
    </circle>
  </g>
  
  <!-- Step number -->
  <circle cx="30" cy="30" r="15" fill="#ff4dcc" filter="url(#glow)"/>
  <text x="30" y="36" text-anchor="middle" fill="white" font-family="Arial" font-size="14" font-weight="bold">1</text>
</svg>